<svg version="1.2" xmlns="http://www.w3.org/2000/svg" viewBox="0 0 600 132" width="600" height="132"><style>.a{fill:#de0000}</style><path  d="m584.9 61.1c-0.9-8-11.2-14.7-17.5-15.9-5.7-1.1-11.5-1.5-17.3-1.5-4.6-0.1-9.1 0.2-13.7 0.7-6.5 0.7-9.7 3.1-12 9.6-0.9 2.6-1.6 6.5 0.1 8.8 2.5 3.3 7.5 1.5 10.6 0.5 3.4-1.1 7.3-1.1 10.8-1.4 3.6-0.3 8.6-1.4 12.1 0.2-1.5 3-5.7 4.5-8.3 6-3.8 2.2-7.5 4.5-11.3 6.6-10.4 5.6-21.2 12.4-32.3 16.4-6.3 2.2-13 2.7-19.6 2.8-5 0.1-10.1 0.3-15.1-0.2-3.3-0.3-9.3-0.5-11.1-4.3-1.3-2.7 0-5.9 1.3-8.2 7.4-12.8 18.8-21.2 33-21.7 3.5-0.1 7.4-0.5 9.3-4.2 2.5-4.8-1.2-9.5-5.2-11.4-7.2-3.3-15.8-0.4-22.7 2.5-6.8 2.8-13.4 6.7-18.1 12.8-6.1 7.9-10.2 19.1-8.9 29.4 1.9 14.8 11.8 29 26.9 27.8 4.8-0.4 9.7-1.2 14.3-2.8 4.7-1.7 9.2-5.3 14.3-5.3 0.2 0 0.3 0 0.3 0.1 3.1 3.4 5.9 6.6 10.3 7.9 4.3 1.3 8.9 1 13.3 1.2 19.8 1.3 39.6-2.1 58.7-7.7 3.7-1.1 8-3.5 10.7-6.3 5.6-5.8-3.3-7.8-7.7-7.8q-7.8-0.2-15.6-0.3-17.5-0.2-35.1 0.9c-3.4 0.2-6.8 0.6-10.2 0.7-2.2 0.1-5.4-0.8-4-3.5 0.9-1.8 3.7-3.1 5.3-3.9 12.8-5.9 25.5-10 38.9-14.1 4.5-1.4 11.4-3.4 13.9-8.1 1.5-2.2 1.8-4.3 1.6-6.3zm-160.1 0.8c0.3-3.2-0.2-6.5-2-8.6-1.5-1.7-3.7-3.4-5.7-4.2-3.1-1.2-5.8 1.9-8.1 3.5-2.8 2-6.2 3.3-9.3 4.8-6.5 2.9-12.2 4.5-19.7 5.6-4.3 0.6-8.6 0.8-11.2-0.2-2.6-1-4-9.3-4.3-10.2-1.3-3.5-2.2-5.9-6.1-6.4-3.4 0.5-4.6 3.9-5.3 7.4-0.7 3.4-1.4 7.8-0.7 13.4 0.6 5.4 2.7 10.8 6.6 14.5 1.3 1.2 2.3 1.3 3.9 1.9 1.6 0.5 3.1 0.9 3.5 2.8 0.2 1.3 0 3.2 0 4.6 0.1 4 0.3 8 0.5 11.9 0.1 1.2 0.1 2.3 0.2 3.5 0.4 4.8-0.1 14.2 6.2 15.2 8.3 1.3 6.8-8 7-13.7 0.1-3.6 0.3-7.3 0.4-10.9 0-0.8 0.4-10.9 0.9-10.9 0.2 0 0.3 0 0.4 0 3.1-0.4 6.1-1 8.9-1.5 3.2-0.6 6.3-1.4 9.4-2.4 6-1.9 12-4.6 17-8.6 2.7-2.2 6-5.8 6.9-9.3 0.4-0.8 0.5-1.4 0.6-2.2zm5.9 48.4c1.7-3 2.2-7.5 0.7-10.7-1.7-3.4-7.8-1.2-10.5-0.6-2.8 0.5-6 1.6-6.9 4.8-1 3.5 1.2 9.1 3.6 11.5 5.2 5.3 10.2 0.3 13.1-5zm-92.9-2.1c0.1-1.2 0.1-2.4 0.1-3.6 0.6-8.9 1.4-17.7 2.4-26.6 0.8-7.7 1.9-15.4-3.9-21.2-5.8-5.8-11.5-8.3-19-4.7-8 3.8-15.2 9.6-23.6 12.5 1-0.3-6.1-12.5-6.9-13.4-2.4-2.7-9.1-8.4-12.3-3.9-2.1 2.9-2.1 7-2.9 10.4-0.9 4.1-2 8.1-2.8 12.2-1.8 8.6-4.8 18.3-7.1 26.7-0.1 0-0.3 0-0.5-0.1-9.2-2.5-18.6-3.7-27.8-6.4-9.2-2.7-18.3-5.9-27.3-9.4 3.7-0.7 7.6-1.7 11.2-2.6 3.9-0.9 7.8-2.1 11.4-4 3-1.6 6.5-3.2 8.3-6.4 9.9-17.4-24.6-22.8-33.4-23.2-6.1-0.2-24.7-2.3-26.2 7.2-0.3 2.1 0.1 4.6 0.6 6.6 0.6 2.5 2.3 2.7 3.4 4.8 1.3 2.7-1.6 7.3-2.4 10-1.2 4.1-2.1 8.2-3.2 12.4-1.7 6.7-3 13.1-2.3 20.1 0.2 1.5 0.6 4.8 1.3 6 1.7 2.7 4.5 3.7 7.3 2.6 3.7-1.4 4-5.6 5.4-9.1 0.3-0.8 4-9.4 3.4-9.7 12.7 6.4 26.8 11.6 42.5 15.7 4.9 1.3 10.2 0.5 15-0.8 3-0.8 5.7-2.5 8.9-3.1 4.3-0.8 4.1 2 5.8 5.3 0.8 1.6 1.8 3.1 3 4.4 10.2 11 12.2-17.1 13.5-22.3 0.9-3.3 1-7.4 2.6-10.5 1.7-3.3 4.3 0.1 5.9 1.6 2.2 2.1 4.4 3.7 7.4 3.9 4.3 0.3 7.5-1.3 10.7-4.2 3.1-2.7 6.4-5.1 9.3-8.1 1.6-1.6 3.4-4.8 5.6-5.2 3.3-0.7 2.2 4.4 1.9 6.6-0.5 4-0.6 8.1-0.8 12.2-0.3 5-1.1 11-0.2 16 0.8 4.1 6.1 10.9 10.6 9.8 4.4-0.9 4.9-4.7 5.1-8.5zm-141.3-41.3q-0.7-0.6-1.2-1.8c-1.1-4.3-1-7.7 3.6-8.5 5.2-0.9 9 1 14 1.7 1.8 0.3 3.8 1.9 3.5 4-0.3 2-2.3 2.4-3.8 2.9-3.6 1.2-12.7 4.2-16.1 1.7zm-29.9 1.8c0.5-3.3 1.9-7.4 0.5-10.5-1.6-3.9-3-5.5-4.4-7.2-1.3-1.7-5.7-5.9-8.3-4.5-2.2 1.1-3.2 8.1-4 10.1-1.8 4.7-3 9.6-4.2 14.4-2.5 10.1-3 20-4.1 30.3-0.5 4.2-0.8 8.4-0.3 12.6 0.7 6.3 6 7.1 11 3.6 6.4-4.4 7-12.6 8.5-19 1.4-5.8 2.3-11.7 3.6-17.3 0.9-3.9 1.1-7.9 1.6-11.9 0.1-0.2 0.1-0.4 0.1-0.6z"/><path class="a" d="m128.8 15.4c-1.9-3.3-4.9-6.1-8-7.9-11.7-6.8-24.9-6.9-37.8-6.9-9.4 0-18.7 0.7-28 2-5.1 0.7-10.2 1.7-15.3 2.8-6 1.3-12 2.8-17.9 4.8-5.3 1.8-10.5 4.9-15.4 7.7-2.3 1.3-4.7 3-5.8 5.7-1.3 3.2 0 6.2 0.2 9.4 0.4 4.5 2.2 5.9 4.4 9.2 4.3 6.6 11.3 8.5 18.4 5.6 1.9-0.7 6.5-4.3 8.2-3.8 2.8 0.9 0.4 10-0.2 12.2-0.8 3-2.3 5.3-5.1 6.3-2.3 0.9-7.2 0.4-8 3.7-2.2 9.1 7.1 15.9 8.3 24 0.6 4.1-1 8.1-1.4 12.1-0.6 5.3-0.8 10.6-1.3 15.8-0.2 2.5-0.9 5.9-0.6 8.3 0.4 3.7 4.4 5.9 7.4 4.7 4.8-1.9 7.3-8.2 9.2-12.8 2.6-6.3 4-12.7 5.3-19.5 0.8-4.5 2.3-9.4 7.3-9.9 6.6-0.8 12.9-2.6 19.5-3.4 7.1-0.8 14.2-1.1 21.1-2.6 4.7-1 9.4-0.8 14.1-1.5 7.9-1.2 17.2-4.3 24.1-8.7 3.3-2.2 4.7-7 6-10.7 3.6-9.6-21-8.3-24.7-8.3-10.6-0.1-20.4 0.2-29.5 1-6.6 0.6-13.2 1.1-19.8 0.9-2.9-0.1-7.1 0-9-2.8-2.2-3.3-0.6-10.5 0.7-13.9 1.7-4.3 8.4-3.1 11.8-3.4 5.8-0.5 11.6-1.3 17.5-1.6 12.4-0.6 24.4-1.1 36.7-3.2 3.1-0.5 8.6-1.6 9.4-5.6 0.7-3.5-0.1-6.8-1.8-9.7z"/></svg>