<svg version="1.2" xmlns="http://www.w3.org/2000/svg" viewBox="0 0 512 168" width="512" height="168"><style>.a{fill:#4285f4}.b{fill:#ea4335}.c{fill:#fbbc05}.d{fill:#34a853}</style><path class="a" d="m125.9 59.4h-59.8v17.7h42.4c-2.1 24.9-22.9 35.4-42.4 35.4-25 0-46.7-19.6-46.7-47.2 0-26.8 20.7-47.5 46.7-47.5 20.1 0.1 32 12.9 32 12.9l12.5-12.8c0 0-16-17.8-45-17.8-37 0-65.6 31.3-65.6 64.9 0 33.1 27 65.4 66.6 65.4 34.8 0 60.3-24 60.3-59.3 0-7.4-1-11.7-1-11.7z"/><path class="b" d="m174.8 46.5c-24.5 0-42.1 19.2-42.1 41.5 0 22.7 17 42.2 42.3 42.2 23 0 41.7-17.6 41.7-41.6 0.1-27.9-21.7-42.1-41.9-42.1zm0.3 16.5c12 0 23.5 9.7 23.5 25.4 0 15.4-11.4 25.5-23.6 25.5-13.4 0-23.9-10.7-23.9-25.5 0-14.6 10.4-25.4 23.9-25.4z"/><path class="c" d="m266.4 46.5c-24.5 0-42.1 19.2-42.1 41.5 0 22.7 17 42.2 42.4 42.2 22.9 0 41.6-17.6 41.6-41.6 0-27.9-21.9-42.1-41.9-42.1zm0.3 16.5c12 0 23.5 9.7 23.5 25.4 0 15.4-11.4 25.5-23.5 25.5-13.5 0-24-10.7-24-25.5-0.1-14.6 10.4-25.4 24-25.4z"/><path class="a" d="m356.1 46.5c-22.6 0-40.2 19.7-40.2 41.8 0 25.2 20.5 41.9 39.9 41.9 11.9 0 18.2-4.7 22.9-10.2v8.3c0 14.4-8.7 23.1-22 23.1-12.7 0-19.2-9.6-21.4-14.9l-16.1 6.7c5.7 12.1 17.2 24.7 37.7 24.7 22.4 0 39.4-14.1 39.4-43.6v-75.3h-17.6v7c-5.4-5.6-12.8-9.5-22.7-9.5zm1.7 16.5c11.1 0 22.4 9.4 22.4 25.4 0 16.4-11.3 25.4-22.5 25.4-12.1 0-23.1-9.7-23.1-25.2-0.2-16.1 11.4-25.6 23.2-25.6z"/><path class="b" d="m474.2 46.5c-21.1 0-39 16.9-39 41.8 0 26.4 19.9 42.1 41.1 42.1 17.7 0 28.6-9.7 35-18.4l-14.5-9.7c-3.8 5.8-10.1 11.5-20.5 11.5-11.8 0-17.2-6.5-20.5-12.8l56.2-23.2-2.9-6.8c-5.4-13.4-18.1-24.5-34.9-24.5zm0.9 16.1c7.6 0 13.1 4 15.5 8.9l-37.5 15.7c-1.7-12.2 9.8-24.6 22-24.6z"/><path fill-rule="evenodd" class="d" d="m408.5 4.4h18.4v123.5h-18.4z"/></svg>